<svg width="77" height="151" xmlns="http://www.w3.org/2000/svg" xmlns:xlink="http://www.w3.org/1999/xlink" overflow="hidden"><defs><clipPath id="clip0"><path d="M563 122 640 122 640 273 563 273Z" fill-rule="evenodd" clip-rule="evenodd"/></clipPath></defs><g clip-path="url(#clip0)" transform="translate(-563 -122)"><rect x="582" y="122" width="38" height="38" fill="#F8CBAD"/><rect x="582" y="122" width="38" height="11" fill="#3B3838"/><rect x="582" y="160" width="38" height="63" fill="#008080"/><rect x="582" y="222" width="38" height="51" fill="#332A79"/><rect x="620" y="160" width="19" height="51" fill="#F8CBAD"/><rect x="563" y="160" width="19" height="50" fill="#F8CBAD"/><rect x="582" y="133" width="6" height="7" fill="#3B3838"/><rect x="614" y="133" width="6" height="7" fill="#3B3838"/><rect x="563" y="160" width="19" height="18" fill="#008080"/><rect x="620" y="160" width="19" height="18" fill="#008080"/><rect x="582" y="264" width="38" height="9" fill="#4E4E4E"/><rect x="607" y="141" width="5" height="6" fill="#FF0000"/><rect x="591" y="141" width="6" height="6" fill="#FF0000"/></g></svg>