<svg width="524" height="328" xmlns="http://www.w3.org/2000/svg" xmlns:xlink="http://www.w3.org/1999/xlink" overflow="hidden"><defs><clipPath id="clip0"><path d="M352 170 876 170 876 498 352 498Z" fill-rule="evenodd" clip-rule="evenodd"/></clipPath></defs><g clip-path="url(#clip0)" transform="translate(-352 -170)"><path d="M451.5 334C451.5 244.254 524.254 171.5 614 171.5 703.746 171.5 776.5 244.254 776.5 334 776.5 423.746 703.746 496.5 614 496.5 524.254 496.5 451.5 423.746 451.5 334Z" stroke="#000000" stroke-width="1.33333" stroke-miterlimit="8" fill="#FFFFFF" fill-rule="evenodd"/><path d="M486.5 334C486.5 263.584 543.584 206.5 614 206.5 684.416 206.5 741.5 263.584 741.5 334 741.5 404.416 684.416 461.5 614 461.5 543.584 461.5 486.5 404.416 486.5 334Z" stroke="#000000" stroke-width="1.33333" stroke-miterlimit="8" fill-rule="evenodd"/><path d="M528.5 334.5C528.5 287.004 567.004 248.5 614.5 248.5 661.997 248.5 700.5 287.004 700.5 334.5 700.5 381.997 661.997 420.5 614.5 420.5 567.004 420.5 528.5 381.997 528.5 334.5Z" stroke="#000000" stroke-width="1.33333" stroke-miterlimit="8" fill="#0014ED" fill-rule="evenodd"/><path d="M568.5 334.5C568.5 309.095 588.871 288.5 614 288.5 639.129 288.5 659.5 309.095 659.5 334.5 659.5 359.905 639.129 380.5 614 380.5 588.871 380.5 568.5 359.905 568.5 334.5Z" stroke="#000000" stroke-width="1.33333" stroke-miterlimit="8" fill="#ED0000" fill-rule="evenodd"/><path d="M596.5 334.5C596.5 324.559 604.559 316.5 614.5 316.5 624.441 316.5 632.5 324.559 632.5 334.5 632.5 344.441 624.441 352.5 614.5 352.5 604.559 352.5 596.5 344.441 596.5 334.5Z" stroke="#000000" stroke-width="1.33333" stroke-miterlimit="8" fill="#FFEB3B" fill-rule="evenodd"/><path d="M790.63 345.157C788.505 345.157 786.661 345.337 785.099 345.696 783.536 346.055 782.239 346.587 781.208 347.29 780.177 347.993 779.419 348.837 778.935 349.821 778.45 350.805 778.208 351.938 778.208 353.219 778.208 355.407 778.903 357.149 780.294 358.446 781.685 359.743 783.63 360.391 786.13 360.391 788.161 360.391 790.044 359.876 791.778 358.844 793.513 357.813 795.333 356.235 797.239 354.11L797.239 345.157ZM494.63 345.157C492.505 345.157 490.661 345.337 489.099 345.696 487.536 346.055 486.239 346.587 485.208 347.29 484.177 347.993 483.419 348.837 482.935 349.821 482.45 350.805 482.208 351.938 482.208 353.219 482.208 355.407 482.903 357.149 484.294 358.446 485.685 359.743 487.63 360.391 490.13 360.391 492.161 360.391 494.044 359.876 495.778 358.844 497.513 357.813 499.333 356.235 501.239 354.11L501.239 345.157ZM835.317 326.735C833.349 326.735 831.677 327.204 830.302 328.141 828.927 329.079 827.81 330.313 826.95 331.844 826.091 333.376 825.466 335.11 825.075 337.048 824.685 338.985 824.489 340.954 824.489 342.954 824.489 345.079 824.653 347.157 824.981 349.188 825.31 351.219 825.88 353.024 826.692 354.602 827.505 356.18 828.583 357.446 829.927 358.399 831.271 359.352 832.958 359.829 834.989 359.829 836.021 359.829 837.013 359.688 837.966 359.407 838.919 359.126 839.896 358.657 840.896 358.001 841.896 357.344 842.942 356.493 844.036 355.446 845.13 354.399 846.286 353.11 847.505 351.579L847.505 334.704C845.411 332.11 843.388 330.134 841.435 328.774 839.481 327.415 837.442 326.735 835.317 326.735ZM539.317 326.735C537.349 326.735 535.677 327.204 534.302 328.141 532.927 329.079 531.81 330.313 530.95 331.844 530.091 333.376 529.466 335.11 529.075 337.048 528.685 338.985 528.489 340.954 528.489 342.954 528.489 345.079 528.653 347.157 528.982 349.188 529.31 351.219 529.88 353.024 530.692 354.602 531.505 356.18 532.583 357.446 533.927 358.399 535.271 359.352 536.958 359.829 538.989 359.829 540.021 359.829 541.013 359.688 541.966 359.407 542.919 359.126 543.896 358.657 544.896 358.001 545.896 357.344 546.942 356.493 548.036 355.446 549.13 354.399 550.286 353.11 551.505 351.579L551.505 334.704C549.411 332.11 547.388 330.134 545.435 328.774 543.481 327.415 541.442 326.735 539.317 326.735ZM742.187 326.126C740.269 326.126 738.587 326.485 737.14 327.204 735.694 327.923 734.484 328.876 733.509 330.063 732.534 331.251 731.779 332.634 731.245 334.212 730.71 335.79 730.412 337.438 730.349 339.157L753.364 339.157C753.458 335.094 752.554 331.907 750.652 329.594 748.75 327.282 745.928 326.126 742.187 326.126ZM446.187 326.126C444.269 326.126 442.587 326.485 441.14 327.204 439.694 327.923 438.484 328.876 437.509 330.063 436.534 331.251 435.779 332.634 435.245 334.212 434.71 335.79 434.412 337.438 434.349 339.157L457.364 339.157C457.458 335.094 456.554 331.907 454.652 329.594 452.75 327.282 449.928 326.126 446.187 326.126ZM788.286 320.079C791.317 320.079 793.896 320.423 796.021 321.11 798.146 321.798 799.864 322.805 801.177 324.134 802.489 325.462 803.442 327.11 804.036 329.079 804.63 331.048 804.927 333.344 804.927 335.969L804.927 364.423C804.927 364.798 804.802 365.079 804.552 365.266 804.302 365.454 803.958 365.594 803.521 365.688 803.083 365.782 802.442 365.829 801.599 365.829 800.786 365.829 800.138 365.782 799.653 365.688 799.169 365.594 798.817 365.454 798.599 365.266 798.38 365.079 798.271 364.798 798.271 364.423L798.271 360.204C796.427 362.173 794.372 363.704 792.106 364.798 789.841 365.891 787.442 366.438 784.911 366.438 782.692 366.438 780.685 366.149 778.888 365.571 777.091 364.993 775.56 364.157 774.294 363.063 773.028 361.969 772.044 360.626 771.341 359.032 770.638 357.438 770.286 355.626 770.286 353.594 770.286 351.219 770.771 349.157 771.739 347.407 772.708 345.657 774.099 344.204 775.911 343.048 777.724 341.891 779.942 341.024 782.567 340.446 785.192 339.868 788.146 339.579 791.427 339.579L797.239 339.579 797.239 336.298C797.239 334.673 797.067 333.235 796.724 331.985 796.38 330.735 795.825 329.696 795.06 328.868 794.294 328.04 793.302 327.415 792.083 326.993 790.864 326.571 789.364 326.36 787.583 326.36 785.677 326.36 783.966 326.587 782.45 327.04 780.935 327.493 779.606 327.993 778.466 328.54 777.325 329.087 776.372 329.587 775.606 330.04 774.841 330.493 774.271 330.719 773.896 330.719 773.646 330.719 773.427 330.657 773.239 330.532 773.052 330.407 772.888 330.219 772.747 329.969 772.606 329.719 772.505 329.399 772.442 329.009 772.38 328.618 772.349 328.188 772.349 327.719 772.349 326.938 772.403 326.321 772.513 325.868 772.622 325.415 772.888 324.985 773.31 324.579 773.731 324.173 774.458 323.696 775.489 323.149 776.521 322.602 777.708 322.102 779.052 321.649 780.396 321.196 781.864 320.821 783.458 320.524 785.052 320.227 786.661 320.079 788.286 320.079ZM742.583 320.079C745.896 320.079 748.716 320.61 751.044 321.673 753.372 322.735 755.286 324.165 756.786 325.962 758.286 327.759 759.388 329.868 760.091 332.29 760.794 334.712 761.146 337.298 761.146 340.048L761.146 341.454C761.146 342.673 760.839 343.54 760.227 344.055 759.615 344.571 758.917 344.829 758.132 344.829L730.349 344.829C730.349 347.173 730.584 349.282 731.055 351.157 731.526 353.032 732.311 354.641 733.41 355.985 734.509 357.329 735.938 358.36 737.697 359.079 739.455 359.798 741.606 360.157 744.15 360.157 746.159 360.157 747.949 359.993 749.519 359.665 751.089 359.337 752.448 358.969 753.594 358.563 754.74 358.157 755.682 357.79 756.42 357.462 757.158 357.134 757.716 356.969 758.093 356.969 758.313 356.969 758.509 357.024 758.681 357.134 758.854 357.243 758.987 357.407 759.082 357.626 759.176 357.844 759.246 358.149 759.294 358.54 759.341 358.93 759.364 359.407 759.364 359.969 759.364 360.376 759.349 360.727 759.317 361.024 759.286 361.321 759.247 361.587 759.2 361.821 759.153 362.055 759.075 362.266 758.966 362.454 758.856 362.641 758.716 362.821 758.544 362.993 758.372 363.165 757.864 363.446 757.021 363.837 756.177 364.227 755.083 364.61 753.739 364.985 752.396 365.36 750.841 365.696 749.075 365.993 747.31 366.29 745.427 366.438 743.427 366.438 739.958 366.438 736.919 365.954 734.31 364.985 731.7 364.016 729.505 362.579 727.724 360.673 725.942 358.766 724.599 356.376 723.692 353.501 722.786 350.626 722.333 347.282 722.333 343.469 722.333 339.844 722.802 336.587 723.739 333.696 724.677 330.805 726.028 328.352 727.794 326.337 729.56 324.321 731.692 322.774 734.192 321.696 736.692 320.618 739.489 320.079 742.583 320.079ZM492.286 320.079C495.317 320.079 497.896 320.423 500.021 321.11 502.146 321.798 503.864 322.805 505.177 324.134 506.489 325.462 507.442 327.11 508.036 329.079 508.63 331.048 508.927 333.344 508.927 335.969L508.927 364.423C508.927 364.798 508.802 365.079 508.552 365.266 508.302 365.454 507.958 365.594 507.521 365.688 507.083 365.782 506.442 365.829 505.599 365.829 504.786 365.829 504.138 365.782 503.653 365.688 503.169 365.594 502.817 365.454 502.599 365.266 502.38 365.079 502.271 364.798 502.271 364.423L502.271 360.204C500.427 362.173 498.372 363.704 496.106 364.798 493.841 365.891 491.442 366.438 488.911 366.438 486.692 366.438 484.685 366.149 482.888 365.571 481.091 364.993 479.56 364.157 478.294 363.063 477.028 361.969 476.044 360.626 475.341 359.032 474.638 357.438 474.286 355.626 474.286 353.594 474.286 351.219 474.771 349.157 475.739 347.407 476.708 345.657 478.099 344.204 479.911 343.048 481.724 341.891 483.942 341.024 486.567 340.446 489.192 339.868 492.146 339.579 495.427 339.579L501.239 339.579 501.239 336.298C501.239 334.673 501.067 333.235 500.724 331.985 500.38 330.735 499.825 329.696 499.06 328.868 498.294 328.04 497.302 327.415 496.083 326.993 494.864 326.571 493.364 326.36 491.583 326.36 489.677 326.36 487.966 326.587 486.45 327.04 484.935 327.493 483.606 327.993 482.466 328.54 481.325 329.087 480.372 329.587 479.606 330.04 478.841 330.493 478.271 330.719 477.896 330.719 477.646 330.719 477.427 330.657 477.239 330.532 477.052 330.407 476.888 330.219 476.747 329.969 476.606 329.719 476.505 329.399 476.442 329.009 476.38 328.618 476.349 328.188 476.349 327.719 476.349 326.938 476.403 326.321 476.513 325.868 476.622 325.415 476.888 324.985 477.31 324.579 477.731 324.173 478.458 323.696 479.489 323.149 480.521 322.602 481.708 322.102 483.052 321.649 484.396 321.196 485.864 320.821 487.458 320.524 489.052 320.227 490.661 320.079 492.286 320.079ZM446.583 320.079C449.896 320.079 452.716 320.61 455.044 321.673 457.372 322.735 459.286 324.165 460.786 325.962 462.286 327.759 463.388 329.868 464.091 332.29 464.794 334.712 465.146 337.298 465.146 340.048L465.146 341.454C465.146 342.673 464.84 343.54 464.227 344.055 463.615 344.571 462.917 344.829 462.132 344.829L434.349 344.829C434.349 347.173 434.584 349.282 435.055 351.157 435.526 353.032 436.311 354.641 437.41 355.985 438.509 357.329 439.938 358.36 441.697 359.079 443.455 359.798 445.606 360.157 448.15 360.157 450.159 360.157 451.949 359.993 453.519 359.665 455.09 359.337 456.448 358.969 457.594 358.563 458.74 358.157 459.682 357.79 460.42 357.462 461.158 357.134 461.716 356.969 462.093 356.969 462.313 356.969 462.509 357.024 462.681 357.134 462.854 357.243 462.987 357.407 463.082 357.626 463.176 357.844 463.246 358.149 463.294 358.54 463.341 358.93 463.364 359.407 463.364 359.969 463.364 360.376 463.349 360.727 463.317 361.024 463.286 361.321 463.247 361.587 463.2 361.821 463.153 362.055 463.075 362.266 462.966 362.454 462.856 362.641 462.716 362.821 462.544 362.993 462.372 363.165 461.864 363.446 461.021 363.837 460.177 364.227 459.083 364.61 457.739 364.985 456.396 365.36 454.841 365.696 453.075 365.993 451.31 366.29 449.427 366.438 447.427 366.438 443.958 366.438 440.919 365.954 438.31 364.985 435.7 364.016 433.505 362.579 431.724 360.673 429.942 358.766 428.599 356.376 427.692 353.501 426.786 350.626 426.333 347.282 426.333 343.469 426.333 339.844 426.802 336.587 427.739 333.696 428.677 330.805 430.028 328.352 431.794 326.337 433.56 324.321 435.692 322.774 438.192 321.696 440.692 320.618 443.489 320.079 446.583 320.079ZM670.067 304.61C670.849 304.61 671.497 304.649 672.013 304.727 672.528 304.805 672.942 304.899 673.255 305.009 673.567 305.118 673.786 305.266 673.911 305.454 674.036 305.641 674.099 305.86 674.099 306.11L674.099 330.391 701.708 330.391 701.708 306.11C701.708 305.86 701.771 305.641 701.896 305.454 702.021 305.266 702.239 305.118 702.552 305.009 702.864 304.899 703.271 304.805 703.771 304.727 704.271 304.649 704.927 304.61 705.739 304.61 706.489 304.61 707.122 304.649 707.638 304.727 708.153 304.805 708.567 304.899 708.88 305.009 709.192 305.118 709.411 305.266 709.536 305.454 709.661 305.641 709.724 305.86 709.724 306.11L709.724 364.329C709.724 364.579 709.661 364.798 709.536 364.985 709.411 365.173 709.192 365.321 708.88 365.43 708.567 365.54 708.153 365.634 707.638 365.712 707.122 365.79 706.489 365.829 705.739 365.829 704.927 365.829 704.271 365.79 703.771 365.712 703.271 365.634 702.864 365.54 702.552 365.43 702.239 365.321 702.021 365.173 701.896 364.985 701.771 364.798 701.708 364.579 701.708 364.329L701.708 337.423 674.099 337.423 674.099 364.329C674.099 364.579 674.036 364.798 673.911 364.985 673.786 365.173 673.567 365.321 673.255 365.43 672.942 365.54 672.528 365.634 672.013 365.712 671.497 365.79 670.849 365.829 670.067 365.829 669.317 365.829 668.677 365.79 668.146 365.712 667.614 365.634 667.192 365.54 666.88 365.43 666.567 365.321 666.349 365.173 666.224 364.985 666.099 364.798 666.036 364.579 666.036 364.329L666.036 306.11C666.036 305.86 666.099 305.641 666.224 305.454 666.349 305.266 666.567 305.118 666.88 305.009 667.192 304.899 667.614 304.805 668.146 304.727 668.677 304.649 669.317 304.61 670.067 304.61ZM374.067 304.61C374.849 304.61 375.497 304.649 376.013 304.727 376.528 304.805 376.942 304.899 377.255 305.009 377.567 305.118 377.786 305.266 377.911 305.454 378.036 305.641 378.099 305.86 378.099 306.11L378.099 330.391 405.708 330.391 405.708 306.11C405.708 305.86 405.771 305.641 405.896 305.454 406.021 305.266 406.239 305.118 406.552 305.009 406.864 304.899 407.271 304.805 407.771 304.727 408.271 304.649 408.927 304.61 409.739 304.61 410.489 304.61 411.122 304.649 411.638 304.727 412.153 304.805 412.567 304.899 412.88 305.009 413.192 305.118 413.411 305.266 413.536 305.454 413.661 305.641 413.724 305.86 413.724 306.11L413.724 364.329C413.724 364.579 413.661 364.798 413.536 364.985 413.411 365.173 413.192 365.321 412.88 365.43 412.567 365.54 412.153 365.634 411.638 365.712 411.122 365.79 410.489 365.829 409.739 365.829 408.927 365.829 408.271 365.79 407.771 365.712 407.271 365.634 406.864 365.54 406.552 365.43 406.239 365.321 406.021 365.173 405.896 364.985 405.771 364.798 405.708 364.579 405.708 364.329L405.708 337.423 378.099 337.423 378.099 364.329C378.099 364.579 378.036 364.798 377.911 364.985 377.786 365.173 377.567 365.321 377.255 365.43 376.942 365.54 376.528 365.634 376.013 365.712 375.497 365.79 374.849 365.829 374.067 365.829 373.317 365.829 372.677 365.79 372.146 365.712 371.614 365.634 371.192 365.54 370.88 365.43 370.567 365.321 370.349 365.173 370.224 364.985 370.099 364.798 370.036 364.579 370.036 364.329L370.036 306.11C370.036 305.86 370.099 305.641 370.224 305.454 370.349 305.266 370.567 305.118 370.88 305.009 371.192 304.899 371.614 304.805 372.146 304.727 372.677 304.649 373.317 304.61 374.067 304.61ZM610.989 304.001C613.927 304.001 616.497 304.415 618.7 305.243 620.903 306.071 622.731 307.204 624.185 308.641 625.638 310.079 626.724 311.751 627.442 313.657 628.161 315.563 628.521 317.594 628.521 319.751 628.521 321.688 628.349 323.618 628.005 325.54 627.661 327.462 626.935 329.54 625.825 331.774 624.716 334.009 623.114 336.493 621.021 339.227 618.927 341.962 616.146 345.11 612.677 348.673L603.067 358.704 629.458 358.704C629.708 358.704 629.95 358.774 630.185 358.915 630.419 359.055 630.622 359.266 630.794 359.548 630.966 359.829 631.091 360.18 631.169 360.602 631.247 361.024 631.286 361.516 631.286 362.079 631.286 362.641 631.247 363.141 631.169 363.579 631.091 364.016 630.981 364.384 630.841 364.68 630.7 364.977 630.513 365.196 630.278 365.337 630.044 365.477 629.786 365.548 629.505 365.548L595.989 365.548C595.552 365.548 595.169 365.493 594.841 365.384 594.513 365.274 594.232 365.094 593.997 364.844 593.763 364.594 593.591 364.235 593.482 363.766 593.372 363.298 593.317 362.719 593.317 362.032 593.317 361.407 593.342 360.86 593.39 360.391 593.438 359.923 593.543 359.509 593.704 359.149 593.865 358.79 594.066 358.43 594.308 358.071 594.549 357.712 594.863 357.329 595.25 356.923L607.373 344.454C610.175 341.579 612.421 339.001 614.112 336.719 615.803 334.438 617.107 332.36 618.025 330.485 618.942 328.61 619.546 326.907 619.836 325.376 620.126 323.844 620.271 322.407 620.271 321.063 620.271 319.719 620.045 318.446 619.593 317.243 619.142 316.04 618.489 314.985 617.635 314.079 616.78 313.173 615.708 312.454 614.418 311.923 613.128 311.391 611.645 311.126 609.968 311.126 608.001 311.126 606.236 311.391 604.672 311.923 603.108 312.454 601.738 313.032 600.561 313.657 599.384 314.282 598.4 314.86 597.61 315.391 596.821 315.923 596.232 316.188 595.845 316.188 595.619 316.188 595.418 316.126 595.24 316.001 595.063 315.876 594.918 315.673 594.805 315.391 594.692 315.11 594.604 314.735 594.539 314.266 594.475 313.798 594.442 313.235 594.442 312.579 594.442 312.11 594.458 311.704 594.489 311.36 594.521 311.016 594.575 310.719 594.653 310.469 594.732 310.219 594.833 309.985 594.958 309.766 595.083 309.548 595.333 309.274 595.708 308.946 596.083 308.618 596.732 308.173 597.653 307.61 598.575 307.048 599.731 306.493 601.122 305.946 602.513 305.399 604.044 304.938 605.716 304.563 607.388 304.188 609.146 304.001 610.989 304.001ZM851.349 300.438C852.13 300.438 852.771 300.477 853.271 300.555 853.771 300.634 854.161 300.727 854.442 300.837 854.724 300.946 854.935 301.102 855.075 301.305 855.216 301.509 855.286 301.719 855.286 301.938L855.286 364.376C855.286 364.626 855.231 364.844 855.122 365.032 855.013 365.219 854.825 365.368 854.56 365.477 854.294 365.587 853.942 365.673 853.505 365.735 853.067 365.798 852.536 365.829 851.911 365.829 851.255 365.829 850.708 365.798 850.271 365.735 849.833 365.673 849.474 365.587 849.192 365.477 848.911 365.368 848.708 365.219 848.583 365.032 848.458 364.844 848.396 364.626 848.396 364.376L848.396 358.798C846.177 361.204 843.872 363.079 841.481 364.423 839.091 365.766 836.474 366.438 833.63 366.438 830.536 366.438 827.896 365.837 825.708 364.634 823.521 363.43 821.747 361.805 820.388 359.759 819.028 357.712 818.036 355.305 817.411 352.54 816.786 349.774 816.474 346.86 816.474 343.798 816.474 340.173 816.864 336.899 817.646 333.977 818.427 331.055 819.583 328.563 821.114 326.501 822.646 324.438 824.544 322.852 826.81 321.743 829.075 320.634 831.692 320.079 834.661 320.079 837.13 320.079 839.388 320.618 841.435 321.696 843.481 322.774 845.505 324.36 847.505 326.454L847.505 301.938C847.505 301.719 847.56 301.509 847.669 301.305 847.778 301.102 847.989 300.946 848.302 300.837 848.614 300.727 849.013 300.634 849.497 300.555 849.981 300.477 850.599 300.438 851.349 300.438ZM555.349 300.438C556.13 300.438 556.771 300.477 557.271 300.555 557.771 300.634 558.161 300.727 558.442 300.837 558.724 300.946 558.935 301.102 559.075 301.305 559.216 301.509 559.286 301.719 559.286 301.938L559.286 364.376C559.286 364.626 559.231 364.844 559.122 365.032 559.013 365.219 558.825 365.368 558.56 365.477 558.294 365.587 557.942 365.673 557.505 365.735 557.067 365.798 556.536 365.829 555.911 365.829 555.255 365.829 554.708 365.798 554.271 365.735 553.833 365.673 553.474 365.587 553.192 365.477 552.911 365.368 552.708 365.219 552.583 365.032 552.458 364.844 552.396 364.626 552.396 364.376L552.396 358.798C550.177 361.204 547.872 363.079 545.482 364.423 543.091 365.766 540.474 366.438 537.63 366.438 534.536 366.438 531.896 365.837 529.708 364.634 527.521 363.43 525.747 361.805 524.388 359.759 523.028 357.712 522.036 355.305 521.411 352.54 520.786 349.774 520.474 346.86 520.474 343.798 520.474 340.173 520.864 336.899 521.646 333.977 522.427 331.055 523.583 328.563 525.114 326.501 526.646 324.438 528.544 322.852 530.81 321.743 533.075 320.634 535.692 320.079 538.661 320.079 541.13 320.079 543.388 320.618 545.435 321.696 547.482 322.774 549.505 324.36 551.505 326.454L551.505 301.938C551.505 301.719 551.56 301.509 551.669 301.305 551.778 301.102 551.989 300.946 552.302 300.837 552.614 300.727 553.013 300.634 553.497 300.555 553.981 300.477 554.599 300.438 555.349 300.438Z" stroke="#000000" stroke-width="2" stroke-linejoin="round" stroke-miterlimit="10" fill="#FFEB3B" fill-rule="evenodd"/><text fill="#000000" fill-opacity="0" font-family="Arial,Arial_MSFontService,sans-serif" font-size="66" x="370.036" y="358.188">Head 2 Head</text></g></svg>