<svg width="327" height="328" xmlns="http://www.w3.org/2000/svg" xmlns:xlink="http://www.w3.org/1999/xlink" overflow="hidden"><defs><clipPath id="clip0"><path d="M450 170 777 170 777 498 450 498Z" fill-rule="evenodd" clip-rule="evenodd"/></clipPath></defs><g clip-path="url(#clip0)" transform="translate(-450 -170)"><path d="M451.5 334C451.5 244.254 524.254 171.5 614 171.5 703.746 171.5 776.5 244.254 776.5 334 776.5 423.746 703.746 496.5 614 496.5 524.254 496.5 451.5 423.746 451.5 334Z" stroke="#000000" stroke-width="1.33333" stroke-miterlimit="8" fill="#FFFFFF" fill-rule="evenodd"/><path d="M486.5 334C486.5 263.584 543.584 206.5 614 206.5 684.416 206.5 741.5 263.584 741.5 334 741.5 404.416 684.416 461.5 614 461.5 543.584 461.5 486.5 404.416 486.5 334Z" stroke="#000000" stroke-width="1.33333" stroke-miterlimit="8" fill-rule="evenodd"/><path d="M528.5 334.5C528.5 287.004 567.004 248.5 614.5 248.5 661.997 248.5 700.5 287.004 700.5 334.5 700.5 381.997 661.997 420.5 614.5 420.5 567.004 420.5 528.5 381.997 528.5 334.5Z" stroke="#000000" stroke-width="1.33333" stroke-miterlimit="8" fill="#0014ED" fill-rule="evenodd"/><path d="M568.5 334.5C568.5 309.095 588.871 288.5 614 288.5 639.129 288.5 659.5 309.095 659.5 334.5 659.5 359.905 639.129 380.5 614 380.5 588.871 380.5 568.5 359.905 568.5 334.5Z" stroke="#000000" stroke-width="1.33333" stroke-miterlimit="8" fill="#ED0000" fill-rule="evenodd"/><path d="M596.5 334.5C596.5 324.559 604.559 316.5 614.5 316.5 624.441 316.5 632.5 324.559 632.5 334.5 632.5 344.441 624.441 352.5 614.5 352.5 604.559 352.5 596.5 344.441 596.5 334.5Z" stroke="#000000" stroke-width="1.33333" stroke-miterlimit="8" fill="#FFEB3B" fill-rule="evenodd"/></g></svg>